<?xml version="1.0" encoding="utf-8"?>
<!-- Generator: Adobe Illustrator 20.1.0, SVG Export Plug-In . SVG Version: 6.00 Build 0)  -->
<svg version="1.1" id="Layer_1" xmlns="http://www.w3.org/2000/svg" xmlns:xlink="http://www.w3.org/1999/xlink" x="0px" y="0px"
	 viewBox="0 0 400 269.4" style="enable-background:new 0 0 400 269.4;" xml:space="preserve">
<style type="text/css">
	.st0{fill:#1D2655;}
	.st1{fill:#FFFFFF;}
	.st2{fill:#E40232;}
</style>
<g>
	<polygon class="st0" points="158.1,167.5 400,269.4 400,0 0,0 0,239.9 	"/>
	<polygon class="st1" points="93.9,28.4 15.4,28.4 15.4,51.1 36.2,51.1 36.2,118.9 73.1,118.9 73.1,51.1 93.9,51.1 	"/>
	<path class="st1" d="M227.9,74.2c0,26.4-31.2,47.8-69.8,47.8c-41.9,0-69.8-21.4-69.8-47.8s27.1-47.8,69.8-47.8
		C198.8,26.4,227.9,47.8,227.9,74.2z"/>
	<path class="st1" d="M273.6,28.4h-36.9v90.5h36.9V90.2c29.3,0,53.1-5.9,53.1-30.9C326.7,37,304.6,28.4,273.6,28.4z M273.6,70V48.6
		c9.6,0.4,16.3,3.5,16.3,10.7C289.9,67.3,282.8,69.7,273.6,70z"/>
	<path class="st2" d="M194.4,74.2c0,11.6-16.9,21.1-37.6,21.1c-22.6,0-37.6-9.4-37.6-21.1s14.6-21.1,37.6-21.1
		C178.7,53.1,194.4,62.5,194.4,74.2z"/>
	<polygon class="st1" points="329.8,26.4 354.1,26.4 350.4,47.7 332.7,47.7 	"/>
	<polygon class="st1" points="34.4,137.4 34.4,128.1 27.1,128.1 17.7,128.1 17,128.1 17,164.3 27.1,164.3 27.1,150.9 33.8,150.9 
		33.8,141.5 27.1,141.5 27.1,137.4 	"/>
	<path class="st1" d="M110.3,127.2c-7.7,0-14,7.9-14,19c0,11.6,6.3,19,14,19s14-7.6,14-19C124.3,135.7,118,127.2,110.3,127.2z
		 M110.4,155.7c-2.1,0-3.9-3.7-4-9.5c0-5.5,1.7-9.5,3.8-9.5c2.1,0,3.9,4.2,4,9.5C114.3,151.9,112.5,155.7,110.4,155.7z"/>
	<path class="st1" d="M199.3,127.2c-7.7,0-14,7.9-14,19c0,11.6,6.3,19,14,19c7.7,0,14-7.6,14-19
		C213.3,135.7,207.1,127.2,199.3,127.2z M199.4,155.7c-2.1,0-3.9-3.7-4-9.5c0-5.5,1.7-9.5,3.8-9.5c2.1,0,3.9,4.2,4,9.5
		C203.3,151.9,201.5,155.7,199.4,155.7z"/>
	<path class="st1" d="M285,128.1C285,128.1,285,128.1,285,128.1L285,128.1h-10.1v36.3H285v0c0,0,0,0,0,0c8.3,0,15.1-5.1,15.1-18.1
		C300.2,135.2,293.4,128.1,285,128.1z M285.1,155.2c0,0-0.1,0-0.1,0v-18.1c2.3,0,5.2,2.5,5.2,9C290.1,152.7,287.4,155.2,285.1,155.2
		z"/>
	<path class="st1" d="M368.2,76.1l12.5-17.5c-4.8-1.7-9.8-2.9-14.7-3.8c-6.6-1.2-13.2-2-19.9-1.7c-5.8,0.2-12,1.2-17.3,3.6
		c-4.7,2.2-8.9,5.5-12,9.7c-1.7,2.3-3.2,5-3.6,7.9c-1,6.4,3.8,11.2,9,14.1c6,3.4,12.4,4.4,19,5.8c1.3,0.3,2.7,0.6,3.8,1.4
		c1.9,1.3,2.9,4.1,0.5,5.3c-1.7,0.9-4.1,1-5.9,0.8c-10.9-1.4-16.8-6.6-16.8-6.6s-9.1,12.9-12.9,17.7c1.6,0.8,8.8,3.5,11.5,4.1
		c7.8,1.7,15.9,2.5,23.9,2.5c8.3-0.1,16.9-1,24.4-4.7c4.9-2.4,9.2-6.3,11.5-11.3c1.6-3.6,1.9-7.8,0.4-11.3c-1.8-4.2-5.9-6.9-10-8.8
		c-3.3-1.5-6.7-2.7-10.2-3.8c-3.1-0.9-6.6-1.4-9.6-2.7C343.7,73.2,352.2,64.6,368.2,76.1z"/>
	<path class="st1" d="M379.9,140.9c0,0,0-11.1,0-11.2c0-0.6-3.8-1.5-4.3-1.6c-1.9-0.4-3.8-0.3-5.7,0.1c-4.7,1.2-8.4,5.1-8.6,10.1
		c-0.1,4.5,2.5,8.9,6.2,11.3c5.2,3.5,1.6,7.5-1.4,6s-4.7-4-4.7-4s0,11.7,0,11.7c0,0.3,2.4,0.8,2.7,1c3.6,1.2,7.8,0.8,11-1.3
		c4.6-3,6.3-8.9,4.4-14c-0.7-2-2-3.7-3.6-5.1c-1.5-1.3-3.4-2.4-4.4-4.2c-0.6-1.2-0.4-2.4,0.9-2.9
		C375.3,135.8,379.4,138.3,379.9,140.9z"/>
</g>
</svg>
